<svg width="10" height="10" viewBox="0 0 10 10" fill="none" xmlns="http://www.w3.org/2000/svg">
    <path d="M9.33884 1.56066C9.53411 1.36539 9.5341 1.04881 9.33884 0.853555L8.63173 0.146448C8.43647 -0.0488108 8.11989 -0.0488216 7.92462 0.146448L4.74264 3.32843L1.56066 0.146448C1.3654 -0.0488108 1.04883 -0.0488216 0.853555 0.146448L0.146448 0.853555C-0.0488216 1.04883 -0.0488108 1.3654 0.146448 1.56066L3.32843 4.74264L0.146448 7.92462C-0.0488216 8.11989 -0.0488108 8.43647 0.146448 8.63173L0.853555 9.33884C1.04881 9.5341 1.36539 9.53411 1.56066 9.33884L4.74264 6.15686L7.92462 9.33884C8.11988 9.5341 8.43646 9.53411 8.63173 9.33884L9.33884 8.63173C9.53411 8.43646 9.5341 8.11988 9.33884 7.92462L6.15686 4.74264L9.33884 1.56066Z" fill="#FF3D3D"/>
</svg>
