<?xml version="1.0" encoding="UTF-8"?>
<svg width="171px" height="60px" viewBox="0 0 171 60" version="1.1" xmlns="http://www.w3.org/2000/svg" xmlns:xlink="http://www.w3.org/1999/xlink">
    <!-- Generator: Sketch 52.6 (67491) - http://www.bohemiancoding.com/sketch -->
    <title>logo</title>
    <desc>Created with Sketch.</desc>
    <defs>
        <linearGradient x1="-41.3545458%" y1="9.32633569%" x2="141.354546%" y2="90.6736643%" id="linearGradient-1">
            <stop stop-color="#EE4208" offset="0%"></stop>
            <stop stop-color="#4139FF" offset="100%"></stop>
        </linearGradient>
    </defs>
    <g id="Page-1" stroke="none" stroke-width="1" fill="none" fill-rule="evenodd">
        <g id="logo" fill="url(#linearGradient-1)" fill-rule="nonzero">
            <path d="M34.456247,42.0600005 C32.6629137,43.8733339 30.5395803,45.2700005 28.086247,46.2500005 C25.6329137,47.2300005 23.1929137,47.7200005 20.766247,47.7200005 C18.3329137,47.7200005 16.6895803,47.5066672 15.836247,47.0800005 L13.846247,57.9600005 L0.856247005,59.2400005 L9.68624701,13.8000005 L20.126247,12.7100005 L19.286247,17.1300005 C21.0795803,14.0966672 23.8329137,12.5800005 27.546247,12.5800005 C31.726247,12.5800005 34.926247,13.9266672 37.146247,16.6200005 C39.106247,19.0466672 40.086247,22.1166672 40.086247,25.8300005 C40.086247,29.5433339 39.596247,32.7233339 38.616247,35.3700005 C37.636247,38.0166672 36.2495803,40.2466672 34.456247,42.0600005 Z M19.996247,24.1000005 L16.606247,42.8600005 C17.4995803,43.6266672 18.4995803,44.0100005 19.606247,44.0100005 C20.7195803,44.0100005 21.596247,43.7966672 22.236247,43.3700005 C22.876247,42.9433339 23.4295803,42.3033339 23.896247,41.4500005 C25.176247,39.1433339 26.3295803,34.4933339 27.356247,27.5000005 C27.656247,25.4466672 27.806247,23.4200005 27.806247,21.4200005 C27.806247,19.4133339 27.5795803,18.0900005 27.126247,17.4500005 C26.6795803,16.8100005 26.0295803,16.4900005 25.176247,16.4900005 C22.576247,16.4900005 20.8495803,19.0266672 19.996247,24.1000005 Z M63.066247,23.9800005 C63.666247,22.4000005 63.966247,20.9266672 63.966247,19.5600005 C63.966247,17.0400005 62.9395803,15.7800005 60.886247,15.7800005 C59.8195803,15.7800005 58.8495803,16.2600005 57.976247,17.2200005 C57.1029137,18.1800005 56.666247,19.2600005 56.666247,20.4600005 C56.666247,21.3133339 57.006247,22.0800005 57.686247,22.7600005 C58.6729137,23.7000005 60.4229137,24.9366672 62.936247,26.4700005 C65.456247,28.0100005 67.196247,29.4066672 68.156247,30.6600005 C69.116247,31.9200005 69.596247,33.4133339 69.596247,35.1400005 C69.596247,36.8733339 69.1795803,38.5266672 68.346247,40.1000005 C67.5129137,41.6800005 66.3495803,43.0266672 64.856247,44.1400005 C61.656247,46.5266672 57.496247,47.7200005 52.376247,47.7200005 C49.6029137,47.7200005 47.1495803,46.9933339 45.016247,45.5400005 C42.8829137,44.1333339 41.816247,42.6000005 41.816247,40.9400005 C41.816247,39.2733339 42.426247,37.9500005 43.646247,36.9700005 C44.8595803,35.9900005 46.3629137,35.5000005 48.156247,35.5000005 C49.9495803,35.5000005 51.3995803,35.8400005 52.506247,36.5200005 C51.9529137,37.9266672 51.676247,39.1000005 51.676247,40.0400005 C51.676247,42.8533339 52.8695803,44.2600005 55.256247,44.2600005 C56.2829137,44.2600005 57.136247,43.9400005 57.816247,43.3000005 C58.5029137,42.6600005 58.846247,41.7866672 58.846247,40.6800005 C58.846247,38.5066672 57.0095803,36.2666672 53.336247,33.9600005 C50.3495803,32.0000005 48.516247,30.6333339 47.836247,29.8600005 C46.6829137,28.5000005 46.106247,26.9666672 46.106247,25.2600005 C46.106247,23.5533339 46.5129137,21.8866672 47.326247,20.2600005 C48.1329137,18.6400005 49.2829137,17.2533339 50.776247,16.1000005 C53.8895803,13.7133339 58.156247,12.5200005 63.576247,12.5200005 C66.3495803,12.5200005 68.5595803,13.0733339 70.206247,14.1800005 C71.846247,15.2933339 72.666247,16.7866672 72.666247,18.6600005 C72.666247,20.5400005 72.0995803,22.0133339 70.966247,23.0800005 C69.8395803,24.1466672 68.2529137,24.6800005 66.206247,24.6800005 C64.7929137,24.6800005 63.746247,24.4466672 63.066247,23.9800005 Z M95.576247,43.7500005 C93.5295803,46.3966672 89.966247,47.7200005 84.886247,47.7200005 C82.246247,47.7200005 79.966247,46.9200005 78.046247,45.3200005 C76.126247,43.7200005 75.166247,41.7666672 75.166247,39.4600005 C75.166247,38.1800005 75.2295803,37.2200005 75.356247,36.5800005 L79.646247,13.8000005 L92.636247,12.5200005 L87.966247,37.2200005 C87.7929137,38.1600005 87.706247,38.9066672 87.706247,39.4600005 C87.706247,41.9400005 88.4529137,43.1800005 89.946247,43.1800005 C91.6129137,43.1800005 93.0429137,42.0466672 94.236247,39.7800005 C94.616247,39.0600005 94.8929137,38.2300005 95.066247,37.2900005 L99.606247,13.8000005 L112.216247,12.5200005 L107.486247,37.4800005 C107.352914,38.1200005 107.286247,38.7800005 107.286247,39.4600005 C107.286247,40.1466672 107.47958,40.8633339 107.866247,41.6100005 C108.252914,42.3566672 109.062914,42.8133339 110.296247,42.9800005 C110.042914,44.0066672 109.466247,44.8600005 108.566247,45.5400005 C106.692914,46.9933339 104.742914,47.7200005 102.716247,47.7200005 C100.68958,47.7200005 99.0795803,47.3566672 97.886247,46.6300005 C96.686247,45.9033339 95.916247,44.9433339 95.576247,43.7500005 Z M130.966247,42.9200005 C129.646247,46.1200005 126.872914,47.7200005 122.646247,47.7200005 C120.512914,47.7200005 118.766247,46.9733339 117.406247,45.4800005 C116.292914,44.2400005 115.736247,42.9166672 115.736247,41.5100005 C115.736247,38.3100005 116.482914,33.2133339 117.976247,26.2200005 L122.646247,1.64000053 L135.646247,0.360000534 L129.436247,32.7400005 C128.70958,35.9000005 128.346247,38.0333339 128.346247,39.1400005 C128.346247,41.5733339 129.21958,42.8333339 130.966247,42.9200005 Z M150.366247,47.7200005 C140.97958,47.7200005 136.286247,43.3033339 136.286247,34.4700005 C136.286247,28.1966672 138.012914,23.0333339 141.466247,18.9800005 C145.132914,14.6733339 150.146247,12.5200005 156.506247,12.5200005 C161.112914,12.5200005 164.58958,13.5866672 166.936247,15.7200005 C169.282914,17.8533339 170.456247,21.1600005 170.456247,25.6400005 C170.456247,32.4666672 168.622914,37.8633339 164.956247,41.8300005 C161.36958,45.7566672 156.506247,47.7200005 150.366247,47.7200005 Z M152.026247,19.8800005 C151.512914,21.0333339 151.052914,22.4733339 150.646247,24.2000005 C150.246247,25.9266672 149.78958,28.1566672 149.276247,30.8900005 C148.762914,33.6166672 148.506247,36.6666672 148.506247,40.0400005 C148.506247,41.1466672 148.686247,42.0633339 149.046247,42.7900005 C149.412914,43.5166672 150.086247,43.8800005 151.066247,43.8800005 C152.046247,43.8800005 152.846247,43.6466672 153.466247,43.1800005 C154.086247,42.7066672 154.62958,41.9166672 155.096247,40.8100005 C155.94958,38.8433339 156.71958,36.0366672 157.406247,32.3900005 C158.086247,28.7433339 158.45958,26.1300005 158.526247,24.5500005 C158.586247,22.9700005 158.616247,21.5933339 158.616247,20.4200005 C158.616247,19.2466672 158.446247,18.2766672 158.106247,17.5100005 C157.766247,16.7433339 157.116247,16.3600005 156.156247,16.3600005 C155.196247,16.3600005 154.396247,16.6600005 153.756247,17.2600005 C153.116247,17.8533339 152.53958,18.7266672 152.026247,19.8800005 Z" id="Shape"></path>
        </g>
    </g>
</svg>